<svg id="Logo-type" xmlns="http://www.w3.org/2000/svg" xmlns:xlink="http://www.w3.org/1999/xlink" viewBox="0 0 199.17 201.83"><defs><style>.cls-1{fill:none;}.cls-2{clip-path:url(#clip-path);}.cls-3{fill:url(#linear-gradient);}.cls-4{clip-path:url(#clip-path-2);}.cls-5{fill:url(#linear-gradient-2);}.cls-6{clip-path:url(#clip-path-3);}.cls-7{fill:url(#linear-gradient-3);}.cls-8{clip-path:url(#clip-path-4);}.cls-9{fill:url(#linear-gradient-4);}</style><clipPath id="clip-path"><path class="cls-1" d="M90.33,118.92c-11.07,11.42-48,48.2-65.31,65.4q3.86,3.42,8,6.45c17.17-17.4,54.59-55.13,64.67-63.52,33.84-28.17,63-38.4,100.19-36.88a103.84,103.84,0,0,0-17.83-44.44c-32.76,15-62.13,44.52-89.75,73"/></clipPath><linearGradient id="linear-gradient" x1="1.23" y1="602.6" x2="3.95" y2="602.6" gradientTransform="matrix(63.61, 0, 0, -63.61, -53.48, 38451.85)" gradientUnits="userSpaceOnUse"><stop offset="0" stop-color="#d3711b"/><stop offset="1" stop-color="#df9929"/></linearGradient><clipPath id="clip-path-2"><path class="cls-1" d="M85.43,150.94c-7.16,7.16-32.75,33.29-44.34,45.12q4,2.38,8.27,4.41h1.93C63.13,188.23,83,167.68,83,167.67c31.46-31.84,64.84-42,106.89-18.79a103.92,103.92,0,0,0,8.9-35.2v-6.86a89.78,89.78,0,0,0-19.15-2.06c-48,0-86,38-94.21,46.18"/></clipPath><linearGradient id="linear-gradient-2" x1="1.43" y1="602.94" x2="4.15" y2="602.94" gradientTransform="matrix(58.12, 0, 0, -58.12, -42.07, 35195.8)" xlink:href="#linear-gradient"/><clipPath id="clip-path-3"><path class="cls-1" d="M74.53,104.06c-8,9.67-44.93,45.77-64.09,64.4a103.67,103.67,0,0,0,6.9,8.33c16-16,53.74-53.93,65.51-65.35,28.56-27.69,58.22-57.15,73.14-90A104.14,104.14,0,0,0,111.37,2.75c1.77,37.72-8.39,67.13-36.84,101.31"/></clipPath><linearGradient id="linear-gradient-3" x1="1.11" y1="604.07" x2="3.82" y2="604.07" gradientTransform="matrix(53.55, 0, 0, -53.55, -48.78, 32440.03)" xlink:href="#linear-gradient"/><clipPath id="clip-path-4"><path class="cls-1" d="M52,10.33c24.32,42.79,14.3,76.6-17.94,108.45L.38,151.38v.6c1.52,3.1,3.2,6.11,5,9,11.67-11.42,38.23-37.43,45.46-44.66,9.33-9.34,57.45-57.46,43.75-115h-.17a104.22,104.22,0,0,0-42.38,9"/></clipPath><linearGradient id="linear-gradient-4" x1="0.98" y1="608.36" x2="3.69" y2="608.36" gradientTransform="matrix(35.63, 0, 0, -35.63, -34.63, 21758.42)" xlink:href="#linear-gradient"/></defs><title>Artboard 1</title><g id="lg-4"><g class="cls-2"><rect class="cls-3" x="25.02" y="45.93" width="172.89" height="144.84"/></g></g><g id="lg-3"><g class="cls-4"><rect class="cls-5" x="41.09" y="104.75" width="157.69" height="95.72"/></g></g><g id="lg-2"><g class="cls-6"><rect class="cls-7" x="10.44" y="2.75" width="145.55" height="174.04"/></g></g><g id="lg-1"><g class="cls-8"><rect class="cls-9" x="0.38" y="1.36" width="107.91" height="159.65"/></g></g></svg>